# xmcd
#
# Track frame offsets: 
#        150
#        11331
#        25275
#        38327
#        52021
#        64657
#        78596
#        93158
#        110047
#        123222
#        135479
#        146433
#        159966
#        175068
#
# Disc length: 2503 seconds
#
# Revision: 0
# Processed by: cddbd v1.5PL3 Copyright (c) Steve Scherf et al.
# Submitted via: ExactAudioCopy v0.95a5
#
DISCID=a709c50e
DTITLE=R. Crumb And His Cheap Suit Serenaders - R. Crumb And His Cheap
DTITLE=Suit Serenaders
DYEAR=1974
DGENRE=Blues
TTITLE0=Laughing Rag
TTITLE1=True Blue Lou
TTITLE2=Little Rascals Medley
TTITLE3=Willie The Chimney Sweeper
TTITLE4=Kiwi Bump
TTITLE5=Cuckoo Waltz
TTITLE6=Sweet Lorraine
TTITLE7=I'm Gonna Get It
TTITLE8=Lucille
TTITLE9=I Had But Fifty Cents
TTITLE10=Down In Jungle Town
TTITLE11=Get A Load Of This
TTITLE12=Cheap Suit Special
TTITLE13=I'll See You In My Dreams
EXTD=
EXTT0=
EXTT1=
EXTT2=
EXTT3=
EXTT4=
EXTT5=
EXTT6=
EXTT7=
EXTT8=
EXTT9=
EXTT10=
EXTT11=
EXTT12=
EXTT13=
PLAYORDER=
